<?xml version="1.0" encoding="UTF-8"?>
<svg xmlns="http://www.w3.org/2000/svg" version="1.1" viewBox="0 0 300 250">
  <defs>
    <style>
      .cls-1 {
        fill: #fff;
      }
    </style>
  </defs>
  <!-- Generator: Adobe Illustrator 28.6.0, SVG Export Plug-In . SVG Version: 1.2.0 Build 709)  -->
  <g>
    <g id="Capa_1">
      <g>
        <path class="cls-1" d="M70.3,67.2l53.6-30.5c27.8-15.6,62.4-4.3,75.8,25.4l-31.5,18.1c-1.6-11-14.2-19.3-26.4-12.7l-80.4,46.5,9-46.7Z"/>
        <path class="cls-1" d="M230.8,98.5l-53.3,30.9c-27.7,15.9-62.4,5.4-75.8-24.8l31.4-18.4c1.8,10.1,14.2,18.7,26.7,12.1l79.8-46-8.8,46.2Z"/>
        <path class="cls-1" d="M46.3,172.7l-2.8,8.4c-1.3-.6-2.6-1.1-3.9-1.4-1.3-.3-2.5-.5-3.7-.5-3.3,0-5.9.9-7.9,2.8-2,1.8-3,4.3-3,7.3s.8,4.7,2.5,6.2c1.6,1.5,3.9,2.3,6.7,2.3s2.2-.1,3.4-.4c1.2-.3,2.4-.7,3.6-1.2l-1.4,9.2c-1.9.5-3.6.8-5.3,1.1-1.7.2-3.3.3-4.8.3-5.3,0-9.6-1.5-12.7-4.4-3.2-2.9-4.7-6.9-4.7-11.8s2-11,6.1-14.7c4.1-3.7,9.5-5.6,16.2-5.6s4,.2,6,.6c2,.4,3.9.9,5.9,1.7M75.3,186.3c0-2.4-.6-4.3-1.8-5.7-1.2-1.4-2.8-2.1-4.8-2.1s-4.8,1.2-6.7,3.7c-1.9,2.5-2.8,5.5-2.8,9s.6,4.2,1.9,5.7c1.3,1.5,2.9,2.2,4.9,2.2s4.8-1.2,6.6-3.7c1.8-2.4,2.7-5.5,2.7-9.1M69.4,170.5c5.7,0,10.2,1.5,13.4,4.4,3.3,2.9,4.9,6.9,4.9,12s-2.1,11-6.3,14.8c-4.2,3.8-9.7,5.6-16.6,5.6s-10.1-1.4-13.3-4.3c-3.2-2.8-4.8-6.7-4.8-11.7s2-11.4,6.1-15.2c4.1-3.8,9.6-5.7,16.5-5.7M131.5,192.3l-3,13.9h-12.3l3.7-17.5c.1-.7.2-1.3.3-1.9,0-.6.1-1.1.1-1.6,0-1.6-.4-2.9-1.2-3.8-.8-.9-1.9-1.3-3.3-1.3-2.4,0-4.5.9-6.1,2.8-1.6,1.9-2.8,4.7-3.7,8.6l-3.1,14.7h-12.3l7.5-35.2h11.1l-1.4,6.3c2-2.2,4.1-3.9,6.4-5.1,2.3-1.1,4.6-1.7,7.1-1.7,3.7,0,6.5,1.1,8.5,3.2,2,2.1,3,5.1,3,9s-.1,2.6-.3,4.2c-.2,1.6-.5,3.4-1,5.5M162.6,190.3c-.4,0-.9,0-1.4-.1-.5,0-1.2,0-2.1,0-3.3,0-5.7.5-7.5,1.4-1.7.9-2.6,2.2-2.6,4s.4,2.1,1.3,2.8c.8.7,1.9,1.1,3.3,1.1,2.3,0,4.2-.8,5.9-2.5,1.7-1.7,2.7-3.9,3.1-6.7M174.6,187.5l-2.1,9.9c-.4,2-.8,3.7-1,5-.2,1.3-.4,2.6-.5,3.8h-10.2l.7-5.3c-1.4,2-3.1,3.5-5.1,4.5-2.1,1-4.4,1.5-7.1,1.5s-6.4-1-8.6-2.8c-2.1-1.9-3.2-4.4-3.2-7.5s1.8-7.1,5.5-9.3c3.6-2.2,8.8-3.3,15.4-3.3s1.6,0,2.6,0c.9,0,2,.1,3.1.2,0-.1,0-.3,0-.4,0-.2,0-.4,0-.7,0-1.8-.6-3.1-1.7-4.1-1.2-.9-2.9-1.4-5.1-1.4s-4.1.2-6,.7c-1.9.4-3.8,1.1-5.6,2l1.4-8.1c1.9-.7,3.9-1.2,5.8-1.5,1.9-.3,3.9-.5,5.9-.5,5.2,0,9.2,1,12.1,3,2.9,2,4.3,4.7,4.3,8.2s0,1.7-.2,2.8c-.1,1.1-.3,2.2-.6,3.5M190.3,155.4h12.2l-10.9,50.8h-12.2l10.9-50.8ZM239.6,191.9h-25.3c.2,2.6,1.1,4.5,2.6,5.7,1.5,1.2,3.6,1.8,6.5,1.8s3.9-.2,6-.7c2-.5,4-1.1,6-2l-1.4,8.6c-2.1.7-4.2,1.2-6.4,1.5-2.2.3-4.4.5-6.6.5-5.5,0-9.8-1.5-12.9-4.4-3.2-2.9-4.8-6.9-4.8-12s.6-5.6,1.7-8.4c1.1-2.7,2.7-5.1,4.6-7,1.9-1.8,4.1-3.2,6.8-4.1,2.7-.9,5.6-1.4,8.9-1.4,4.9,0,8.6,1.3,11.2,3.9,2.6,2.6,3.9,6.3,3.9,11.1s0,2-.2,3.2c-.1,1.1-.3,2.3-.6,3.5M230.2,185.2c0-.4.1-.8.1-1,0-.2,0-.4,0-.6,0-1.9-.6-3.5-1.7-4.6-1.1-1.1-2.6-1.7-4.5-1.7s-3.6.7-5.1,2.1c-1.5,1.4-2.5,3.3-3.2,5.8h14.3ZM257.5,200.4l-4.3,20h-12.4l10.6-49.3h11.1l-1.4,6.2c1.7-2.3,3.7-4,5.8-5.1,2.2-1.1,4.5-1.7,7.1-1.7,4.2,0,7.6,1.4,10.1,4.2,2.5,2.8,3.7,6.6,3.7,11.4s-1.7,11.4-5.2,15.3c-3.5,3.9-8,5.9-13.5,5.9s-4.9-.6-6.9-1.8c-2-1.2-3.6-2.8-4.8-5M275.2,186.4c0-2.1-.5-3.8-1.7-5.1-1.1-1.3-2.6-1.9-4.4-1.9s-4.7,1.1-6.5,3.4c-1.8,2.2-2.8,4.9-2.8,8s.6,4,1.8,5.4c1.2,1.3,2.8,2,4.8,2s4.5-1.1,6.2-3.4c1.7-2.3,2.6-5.1,2.6-8.3"/>
      </g>
    </g>
  </g>
</svg>