<?xml version="1.0" encoding="UTF-8"?>
<svg xmlns="http://www.w3.org/2000/svg" version="1.1" viewBox="0 0 140 110">
  <defs>
    <style>
      .cls-1 {
        fill: #1f5c50;
      }
    </style>
  </defs>
  <!-- Generator: Adobe Illustrator 28.6.0, SVG Export Plug-In . SVG Version: 1.2.0 Build 709)  -->
  <g>
    <g id="Capa_1">
      <g>
        <path class="cls-1" d="M35,29.6l23.5-13.4c12.2-6.8,27.4-1.9,33.3,11.1l-13.8,8c-.7-4.8-6.2-8.5-11.6-5.6l-35.3,20.4,3.9-20.5Z"/>
        <path class="cls-1" d="M105.5,43.4l-23.4,13.6c-12.1,7-27.4,2.4-33.3-10.9l13.8-8.1c.8,4.4,6.2,8.2,11.7,5.3l35-20.2-3.9,20.3Z"/>
        <path class="cls-1" d="M24.5,75.9l-1.2,3.7c-.6-.3-1.1-.5-1.7-.6-.6-.1-1.1-.2-1.6-.2-1.4,0-2.6.4-3.5,1.2-.9.8-1.3,1.9-1.3,3.2s.4,2.1,1.1,2.7c.7.7,1.7,1,2.9,1s1,0,1.5-.2c.5-.1,1-.3,1.6-.5l-.6,4c-.8.2-1.6.4-2.3.5-.7.1-1.4.2-2.1.2-2.3,0-4.2-.6-5.6-1.9-1.4-1.3-2.1-3-2.1-5.2s.9-4.8,2.7-6.4c1.8-1.6,4.2-2.4,7.1-2.4s1.8,0,2.6.2c.9.2,1.7.4,2.6.8M37.2,81.9c0-1.1-.3-1.9-.8-2.5-.5-.6-1.2-.9-2.1-.9s-2.1.5-2.9,1.6c-.8,1.1-1.2,2.4-1.2,4s.3,1.8.8,2.5c.6.6,1.3,1,2.1,1s2.1-.5,2.9-1.6c.8-1.1,1.2-2.4,1.2-4M34.6,75c2.5,0,4.5.6,5.9,1.9,1.4,1.3,2.1,3,2.1,5.3s-.9,4.8-2.8,6.5c-1.8,1.6-4.3,2.5-7.3,2.5s-4.4-.6-5.8-1.9c-1.4-1.3-2.1-3-2.1-5.1s.9-5,2.7-6.7c1.8-1.7,4.2-2.5,7.3-2.5M61.9,84.6l-1.3,6.1h-5.4l1.6-7.7c0-.3.1-.6.1-.8,0-.2,0-.5,0-.7,0-.7-.2-1.3-.5-1.7-.3-.4-.8-.6-1.4-.6-1.1,0-2,.4-2.7,1.2-.7.8-1.3,2.1-1.6,3.8l-1.4,6.4h-5.4l3.3-15.4h4.9l-.6,2.7c.9-1,1.8-1.7,2.8-2.2,1-.5,2-.7,3.1-.7,1.6,0,2.9.5,3.7,1.4.9.9,1.3,2.2,1.3,3.9s0,1.1-.1,1.8c0,.7-.2,1.5-.4,2.4M75.5,83.7c-.2,0-.4,0-.6,0-.2,0-.5,0-.9,0-1.4,0-2.5.2-3.3.6-.7.4-1.1,1-1.1,1.8s.2.9.6,1.2c.4.3.8.5,1.4.5,1,0,1.8-.4,2.6-1.1.7-.7,1.2-1.7,1.4-2.9M80.8,82.4l-.9,4.3c-.2.9-.3,1.6-.4,2.2,0,.6-.2,1.1-.2,1.7h-4.5l.3-2.3c-.6.9-1.3,1.5-2.3,2-.9.5-1.9.7-3.1.7s-2.8-.4-3.8-1.2c-.9-.8-1.4-1.9-1.4-3.3s.8-3.1,2.4-4.1c1.6-1,3.8-1.5,6.7-1.5s.7,0,1.1,0c.4,0,.9,0,1.4.1,0,0,0-.1,0-.2,0,0,0-.2,0-.3,0-.8-.3-1.4-.8-1.8-.5-.4-1.3-.6-2.2-.6s-1.8,0-2.6.3c-.8.2-1.7.5-2.4.9l.6-3.6c.9-.3,1.7-.5,2.6-.7.8-.1,1.7-.2,2.6-.2,2.3,0,4,.4,5.3,1.3,1.3.9,1.9,2.1,1.9,3.6s0,.8,0,1.2c0,.5-.1,1-.2,1.5M87.7,68.3h5.4l-4.8,22.3h-5.4l4.8-22.3ZM109.3,84.4h-11.1c.1,1.1.5,2,1.1,2.5.6.5,1.6.8,2.9.8s1.7,0,2.6-.3c.9-.2,1.8-.5,2.6-.9l-.6,3.8c-.9.3-1.9.5-2.8.7-1,.1-1.9.2-2.9.2-2.4,0-4.3-.6-5.7-1.9-1.4-1.3-2.1-3-2.1-5.2s.2-2.5.7-3.7c.5-1.2,1.2-2.2,2-3.1.8-.8,1.8-1.4,3-1.8,1.2-.4,2.5-.6,3.9-.6,2.1,0,3.8.6,4.9,1.7,1.2,1.1,1.7,2.8,1.7,4.9s0,.9,0,1.4c0,.5-.2,1-.3,1.5M105.2,81.4c0-.2,0-.3,0-.4,0-.1,0-.2,0-.3,0-.8-.2-1.5-.7-2-.5-.5-1.2-.7-2-.7s-1.6.3-2.2.9c-.6.6-1.1,1.5-1.4,2.5h6.3ZM117.2,88.1l-1.9,8.8h-5.4l4.7-21.7h4.9l-.6,2.7c.8-1,1.6-1.7,2.6-2.2.9-.5,2-.8,3.1-.8,1.9,0,3.3.6,4.4,1.8,1.1,1.2,1.6,2.9,1.6,5s-.8,5-2.3,6.7c-1.5,1.7-3.5,2.6-5.9,2.6s-2.1-.3-3-.8c-.9-.5-1.6-1.2-2.1-2.2M125,82c0-.9-.2-1.7-.7-2.2-.5-.5-1.1-.8-1.9-.8s-2.1.5-2.9,1.5c-.8,1-1.2,2.2-1.2,3.5s.3,1.8.8,2.4c.5.6,1.2.9,2.1.9s2-.5,2.7-1.5c.8-1,1.1-2.2,1.1-3.7"/>
      </g>
    </g>
  </g>
</svg>